<svg width="175" height="175" viewBox="0 0 175 175" fill="none" xmlns="http://www.w3.org/2000/svg">
<g clip-path="url(#clip0_12_274)">
<path d="M89.0656 114.238C104.753 114.238 117.47 101.521 117.47 85.8336C117.47 70.1464 104.753 57.4294 89.0656 57.4294C73.3784 57.4294 60.6614 70.1464 60.6614 85.8336C60.6614 101.521 73.3784 114.238 89.0656 114.238Z" fill="#FFB6B6"/>
<path d="M72.7598 118.438L71.4766 105.467L97.1019 100.675L112.234 137.517L85.9177 167.78L67.1677 130.938L72.7598 118.438Z" fill="#FFB6B6"/>
<path d="M71.0649 111.96L76.6672 113.225C76.6672 113.225 72.2632 99.2601 73.758 97.9269C75.2529 96.5936 78.916 98.6944 78.916 98.6944L82.7653 103.01L87.4541 98.2363C87.4541 98.2363 92.5445 91.9067 94.5376 90.129C96.5307 88.3513 93.3294 81.7528 93.3294 81.7528C93.3294 81.7528 122.899 73.7794 111.896 59.4371C111.896 59.4371 105.445 48.1922 103.344 51.8553C101.244 55.5184 98.7386 49.7007 98.7386 49.7007L91.0893 51.1553C91.0893 51.1553 75.9925 42.2538 61.6639 61.2966C47.3352 80.3393 71.0649 111.96 71.0649 111.96Z" fill="#2F2E41"/>
<path d="M142.487 155.576C126.964 168.161 107.76 175 87.5 175C69 175 51.3783 169.296 36.6382 158.724C36.6645 158.447 36.6908 158.174 36.7139 157.901C37.1053 153.625 37.454 149.467 37.6842 146.02C38.5757 132.635 69.8027 123.714 69.8027 123.714C69.8027 123.714 69.9441 123.855 70.227 124.102C71.9507 125.615 78.9474 131.102 91.2171 132.635C102.158 134.003 105.76 127.513 106.849 124.405C107.178 123.457 107.276 122.822 107.276 122.822L139.395 137.99C141.49 140.984 142.309 147.431 142.47 154.678C142.477 154.977 142.484 155.273 142.487 155.576Z" fill="#59CD90"/>
<g filter="url(#filter0_d_12_274)">
<path d="M149.372 25.6283C132.845 9.10197 110.872 0 87.5 0C64.1283 0 42.1546 9.10197 25.6283 25.6283C9.10199 42.1546 0 64.1283 0 87.5C0 108.832 7.58225 129 21.477 144.924C22.8026 146.447 24.1875 147.931 25.6283 149.372C25.9671 149.711 26.3092 150.049 26.6546 150.378C27.5757 151.27 28.5132 152.141 29.4671 152.987C30.0461 153.503 30.6316 154.01 31.2237 154.507C31.6875 154.898 32.1513 155.283 32.6217 155.661C32.6316 155.671 32.6382 155.678 32.648 155.684C33.954 156.737 35.2829 157.75 36.6382 158.724C51.3783 169.296 69 175 87.5 175C107.76 175 126.964 168.161 142.487 155.576C143.753 154.549 144.993 153.484 146.211 152.382C147.286 151.408 148.339 150.405 149.372 149.372C149.697 149.046 150.023 148.717 150.342 148.385C151.23 147.47 152.092 146.539 152.934 145.595C167.201 129.569 175 109.135 175 87.5C175 64.1283 165.898 42.1546 149.372 25.6283ZM152.72 144.776C151.898 145.711 151.056 146.632 150.194 147.53C148.852 148.928 147.467 150.283 146.036 151.589C145.493 152.089 144.944 152.576 144.388 153.059C143.757 153.609 143.118 154.148 142.47 154.678C137.362 158.872 131.766 162.49 125.783 165.438C123.418 166.605 120.993 167.668 118.513 168.618C108.878 172.316 98.4211 174.342 87.5 174.342C76.9605 174.342 66.8553 172.454 57.5033 169C53.6645 167.586 49.954 165.905 46.3915 163.98C45.8684 163.697 45.3487 163.411 44.8322 163.118C42.1151 161.579 39.4869 159.898 36.9638 158.082C36.8816 158.023 36.7961 157.961 36.7138 157.901C34.9178 156.605 33.1711 155.24 31.4836 153.806C30.8651 153.283 30.2533 152.753 29.6513 152.211C28.6711 151.339 27.7105 150.441 26.773 149.52C24.9967 147.78 23.2993 145.967 21.6776 144.082C8.58225 128.872 0.657895 109.095 0.657895 87.5C0.657895 39.6151 39.6152 0.657895 87.5 0.657895C135.385 0.657895 174.342 39.6151 174.342 87.5C174.342 109.428 166.174 129.48 152.72 144.776Z" fill="#59CD90"/>
</g>
</g>
<defs>
<filter id="filter0_d_12_274" x="-4" y="-1" width="183" height="183" filterUnits="userSpaceOnUse" color-interpolation-filters="sRGB">
<feFlood flood-opacity="0" result="BackgroundImageFix"/>
<feColorMatrix in="SourceAlpha" type="matrix" values="0 0 0 0 0 0 0 0 0 0 0 0 0 0 0 0 0 0 127 0" result="hardAlpha"/>
<feOffset dy="3"/>
<feGaussianBlur stdDeviation="2"/>
<feComposite in2="hardAlpha" operator="out"/>
<feColorMatrix type="matrix" values="0 0 0 0 0.34902 0 0 0 0 0.803922 0 0 0 0 0.564706 0 0 0 1 0"/>
<feBlend mode="normal" in2="BackgroundImageFix" result="effect1_dropShadow_12_274"/>
<feBlend mode="normal" in="SourceGraphic" in2="effect1_dropShadow_12_274" result="shape"/>
</filter>
<clipPath id="clip0_12_274">
<rect width="175" height="175" fill="white"/>
</clipPath>
</defs>
</svg>
