<svg width="204" height="152" viewBox="0 0 204 152" fill="none" xmlns="http://www.w3.org/2000/svg">
<g clip-path="url(#clip0_12_294)">
<path d="M204 151.561C204 151.805 203.804 152 203.559 152H0.440901C0.196368 152 0 151.805 0 151.561C0 151.318 0.196368 151.123 0.440901 151.123H203.559C203.804 151.123 204 151.318 204 151.561Z" fill="#2E2E43"/>
<path d="M161.784 31.2459H42.2654C40.6135 31.2459 39.2695 29.9091 39.2695 28.266V19.1069C39.2695 17.4638 40.6135 16.127 42.2654 16.127H161.784C163.436 16.127 164.78 17.4638 164.78 19.1069V28.266C164.78 29.9091 163.436 31.2459 161.784 31.2459Z" fill="#F7EBEC" stroke="#BAB7C9" stroke-width="2" stroke-linecap="round" stroke-linejoin="round"/>
<path d="M161.784 87.7074H42.2654C40.6135 87.7074 39.2695 86.3707 39.2695 84.7275V75.5685C39.2695 73.9253 40.6135 72.5885 42.2654 72.5885H161.784C163.436 72.5885 164.78 73.9253 164.78 75.5685V84.7275C164.78 86.3707 163.436 87.7074 161.784 87.7074Z" fill="#F7EBEC" stroke="#BAB7C9" stroke-width="2" stroke-linecap="round" stroke-linejoin="round"/>
<path d="M76.9388 128.246H41.8953C40.2434 128.246 38.8994 126.909 38.8994 125.266V116.107C38.8994 114.464 40.2434 113.127 41.8953 113.127H76.9388C78.5907 113.127 79.9347 114.464 79.9347 116.107V125.266C79.9347 126.909 78.5907 128.246 76.9388 128.246Z" fill="#59CD90"/>
<path d="M39.5322 0.36853H65.7454" stroke="#BAB7C9" stroke-width="2" stroke-linecap="round" stroke-linejoin="round"/>
<path d="M39.5322 56.8301H88.2257" stroke="#BAB7C9" stroke-width="2" stroke-linecap="round" stroke-linejoin="round"/>
<path d="M147.324 135.341L143.202 137.962L146.94 143.778L151.062 141.157L147.324 135.341Z" fill="#F1A1A4"/>
<path d="M134.252 57.1603L129.045 58.929L128.963 51.4503L133.701 51.3977L134.252 57.1603Z" fill="#F1A1A4"/>
<path d="M129.571 53.5154C132.447 53.5154 134.778 51.1965 134.778 48.336C134.778 45.4755 132.447 43.1566 129.571 43.1566C126.695 43.1566 124.364 45.4755 124.364 48.336C124.364 51.1965 126.695 53.5154 129.571 53.5154Z" fill="#F1A1A4"/>
<path d="M130.996 47.8078C130.126 47.791 129.542 46.9234 129.193 46.1251C128.845 45.3316 128.487 44.4138 127.677 44.0911C127.014 43.8282 125.87 45.6638 125.342 45.1858C124.791 44.6863 125.294 42.0763 125.868 41.6054C126.442 41.1345 127.23 41.0342 127.97 40.9887C129.785 40.886 131.608 41.0103 133.391 41.3616C134.492 41.5767 135.631 41.9089 136.431 42.6905C137.447 43.6824 137.721 45.193 137.808 46.6055C137.899 48.0516 137.829 49.5669 137.137 50.8432C136.443 52.1172 134.975 53.066 133.55 52.7601C133.399 51.9929 133.533 51.2065 133.581 50.4226C133.629 49.6434 133.56 48.8021 133.074 48.1854C132.589 47.5688 131.565 47.3345 131.015 47.8914" fill="#2F2E43"/>
<path d="M137.421 49.531C137.937 49.1462 138.555 48.8212 139.197 48.8929C139.891 48.967 140.482 49.531 140.667 50.2003C140.852 50.8695 140.66 51.6104 140.239 52.165C139.819 52.7195 139.187 53.0875 138.514 53.2764C138.125 53.3863 137.7 53.4317 137.325 53.2764C136.774 53.0469 136.472 52.3562 136.681 51.7993" fill="#2F2E43"/>
<path d="M118.044 98.4617C117.717 100.166 118.368 101.715 119.502 101.918C120.634 102.121 121.819 100.902 122.148 99.1978C122.29 98.519 122.259 97.8163 122.057 97.1495L126.062 70.4374L120.665 69.491L118.89 96.5854C118.455 97.1399 118.164 97.7829 118.044 98.4688L118.044 98.4617Z" fill="#F1A1A4"/>
<path d="M128.949 55.4968L125.272 55.5374C122.677 55.9557 121.987 57.3443 121.427 59.897C120.57 63.7905 119.474 68.9795 119.705 69.0512C120.072 69.1707 126.361 72.0293 129.544 71.3218L128.951 55.4968L128.949 55.4968Z" fill="#59CD90"/>
<path d="M133.464 140.397L128.572 140.451L128.649 147.354L133.541 147.299L133.464 140.397Z" fill="#F1A1A4"/>
<path d="M123.919 151.587C123.403 151.594 122.948 151.587 122.602 151.558C121.3 151.455 120.053 150.514 119.421 149.964C119.137 149.718 119.044 149.316 119.185 148.972C119.286 148.726 119.493 148.537 119.753 148.458L123.177 147.445L128.696 143.652L128.759 143.762C128.783 143.802 129.34 144.775 129.53 145.435C129.602 145.686 129.588 145.894 129.482 146.056C129.41 146.169 129.309 146.235 129.227 146.276C129.328 146.379 129.645 146.589 130.621 146.733C132.039 146.943 132.325 145.475 132.334 145.413L132.344 145.363L132.385 145.334C133.055 144.892 133.466 144.694 133.61 144.734C133.701 144.758 133.848 144.804 134.295 148.781C134.336 148.905 134.629 149.818 134.446 150.698C134.249 151.654 130.056 151.369 129.22 151.305C129.196 151.307 126.063 151.565 123.914 151.587H123.922L123.919 151.587Z" fill="#2F2E43"/>
<path d="M141.982 150.44C141.408 150.447 140.879 150.382 140.502 150.32C140.132 150.258 139.838 149.969 139.776 149.601C139.728 149.335 139.807 149.07 139.983 148.869L142.347 146.207L145.01 140.083L145.122 140.143C145.163 140.165 146.153 140.698 146.668 141.156C146.862 141.331 146.961 141.515 146.961 141.711C146.961 141.845 146.91 141.955 146.86 142.029C147.002 142.062 147.381 142.072 148.285 141.682C149.599 141.113 149.061 139.718 149.037 139.663L149.018 139.615L149.039 139.572C149.373 138.845 149.618 138.458 149.76 138.415C149.851 138.391 149.998 138.346 152.495 141.486C152.596 141.57 153.331 142.189 153.643 143.03C153.982 143.946 150.279 145.91 149.529 146.295C149.508 146.314 145.637 149.175 144.046 149.995C143.414 150.32 142.662 150.428 141.977 150.432L141.984 150.44L141.982 150.44Z" fill="#2F2E43"/>
<path d="M136.412 82.6199L122.715 82.7705L121.615 95.4573L127.576 142.227L134.569 142.148L131.471 115.133L143.087 139.428L149.253 135.031L140.141 112.329C140.141 112.329 143.085 92.4338 140.542 87.5149C138.003 82.596 136.414 82.6127 136.414 82.6127V82.6199L136.412 82.6199Z" fill="#2F2E43"/>
<path d="M143.232 83.3178L121.478 83.5592L127.692 55.5135L137.171 55.406L143.232 83.3178Z" fill="#59CD90"/>
<path d="M145.356 98.1605C145.721 99.8599 145.103 101.421 143.976 101.648C142.847 101.877 141.636 100.684 141.273 98.9851C141.117 98.3087 141.131 97.606 141.316 96.9344L136.712 70.3156L142.085 69.2496L144.467 96.301C144.914 96.8459 145.219 97.4841 145.356 98.1653V98.1605Z" fill="#F1A1A4"/>
<path d="M133.497 55.4466L137.174 55.406C139.776 55.7693 140.497 57.1412 141.117 59.6819C142.061 63.5563 143.27 68.7166 143.044 68.7954C142.676 68.9197 136.458 71.9169 133.259 71.2812L133.502 55.4466L133.497 55.4466Z" fill="#59CD90"/>
</g>
<defs>
<clipPath id="clip0_12_294">
<rect width="204" height="152" fill="white"/>
</clipPath>
</defs>
</svg>
